<svg width="1389" height="412" viewBox="0 0 1389 412" fill="none" xmlns="http://www.w3.org/2000/svg">
<rect width="1389" height="412" fill="white"/>
<path d="M192.736 249.008C183.232 249.008 174.496 246.8 166.528 242.384C158.656 237.968 152.368 231.824 147.664 223.952C143.056 215.984 140.752 207.056 140.752 197.168C140.752 187.28 143.056 178.4 147.664 170.528C152.368 162.656 158.656 156.512 166.528 152.096C174.496 147.68 183.232 145.472 192.736 145.472C202.24 145.472 210.928 147.68 218.8 152.096C226.768 156.512 233.008 162.656 237.52 170.528C242.128 178.4 244.432 187.28 244.432 197.168C244.432 207.056 242.128 215.984 237.52 223.952C232.912 231.824 226.672 237.968 218.8 242.384C210.928 246.8 202.24 249.008 192.736 249.008ZM192.736 226.544C200.8 226.544 207.232 223.856 212.032 218.48C216.928 213.104 219.376 206 219.376 197.168C219.376 188.24 216.928 181.136 212.032 175.856C207.232 170.48 200.8 167.792 192.736 167.792C184.576 167.792 178.048 170.432 173.152 175.712C168.352 180.992 165.952 188.144 165.952 197.168C165.952 206.096 168.352 213.248 173.152 218.624C178.048 223.904 184.576 226.544 192.736 226.544ZM348.563 248H323.939L282.755 185.648V248H258.131V146.912H282.755L323.939 209.552V146.912H348.563V248ZM402.988 249.008C395.596 249.008 388.972 247.808 383.116 245.408C377.26 243.008 372.556 239.456 369.004 234.752C365.548 230.048 363.724 224.384 363.532 217.76H389.74C390.124 221.504 391.42 224.384 393.628 226.4C395.836 228.32 398.716 229.28 402.268 229.28C405.916 229.28 408.796 228.464 410.908 226.832C413.02 225.104 414.076 222.752 414.076 219.776C414.076 217.28 413.212 215.216 411.484 213.584C409.852 211.952 407.788 210.608 405.292 209.552C402.892 208.496 399.436 207.296 394.924 205.952C388.396 203.936 383.068 201.92 378.94 199.904C374.812 197.888 371.26 194.912 368.284 190.976C365.308 187.04 363.82 181.904 363.82 175.568C363.82 166.16 367.228 158.816 374.044 153.536C380.86 148.16 389.74 145.472 400.684 145.472C411.82 145.472 420.796 148.16 427.612 153.536C434.428 158.816 438.076 166.208 438.556 175.712H411.916C411.724 172.448 410.524 169.904 408.316 168.08C406.108 166.16 403.276 165.2 399.82 165.2C396.844 165.2 394.444 166.016 392.62 167.648C390.796 169.184 389.884 171.44 389.884 174.416C389.884 177.68 391.42 180.224 394.492 182.048C397.564 183.872 402.364 185.84 408.892 187.952C415.42 190.16 420.7 192.272 424.732 194.288C428.86 196.304 432.412 199.232 435.388 203.072C438.364 206.912 439.852 211.856 439.852 217.904C439.852 223.664 438.364 228.896 435.388 233.6C432.508 238.304 428.284 242.048 422.716 244.832C417.148 247.616 410.572 249.008 402.988 249.008ZM479.63 146.912V248H455.006V146.912H479.63ZM570.195 146.912V166.64H543.411V248H518.787V166.64H492.003V146.912H570.195ZM607.177 166.64V187.088H640.153V206.096H607.177V228.272H644.473V248H582.553V146.912H644.473V166.64H607.177Z" fill="#2F88FF"/>
<path d="M756.783 146.912V166.64H715.599V187.952H746.415V207.104H715.599V248H690.975V146.912H756.783ZM793.917 146.912V207.392C793.917 213.44 795.405 218.096 798.381 221.36C801.357 224.624 805.725 226.256 811.485 226.256C817.245 226.256 821.661 224.624 824.733 221.36C827.805 218.096 829.341 213.44 829.341 207.392V146.912H853.965V207.248C853.965 216.272 852.045 223.904 848.205 230.144C844.365 236.384 839.181 241.088 832.653 244.256C826.221 247.424 819.021 249.008 811.053 249.008C803.085 249.008 795.933 247.472 789.597 244.4C783.357 241.232 778.413 236.528 774.765 230.288C771.117 223.952 769.293 216.272 769.293 207.248V146.912H793.917ZM895.88 166.64V187.088H928.856V206.096H895.88V228.272H933.176V248H871.256V146.912H933.176V166.64H895.88ZM973.786 228.992H1006.04V248H949.162V146.912H973.786V228.992Z" fill="#FF8A00"/>
</svg>
