<svg width="1732" height="209" viewBox="0 0 1732 209" fill="none" xmlns="http://www.w3.org/2000/svg">
<path d="M104.472 208.016C85.464 208.016 67.992 203.6 52.056 194.768C36.312 185.936 23.736 173.648 14.328 157.904C5.112 141.968 0.504 124.112 0.504 104.336C0.504 84.56 5.112 66.8 14.328 51.056C23.736 35.312 36.312 23.024 52.056 14.192C67.992 5.36 85.464 0.943996 104.472 0.943996C123.48 0.943996 140.856 5.36 156.6 14.192C172.536 23.024 185.016 35.312 194.04 51.056C203.256 66.8 207.864 84.56 207.864 104.336C207.864 124.112 203.256 141.968 194.04 157.904C184.824 173.648 172.344 185.936 156.6 194.768C140.856 203.6 123.48 208.016 104.472 208.016ZM104.472 163.088C120.6 163.088 133.464 157.712 143.064 146.96C152.856 136.208 157.752 122 157.752 104.336C157.752 86.48 152.856 72.272 143.064 61.712C133.464 50.96 120.6 45.584 104.472 45.584C88.152 45.584 75.096 50.864 65.304 61.424C55.704 71.984 50.904 86.288 50.904 104.336C50.904 122.192 55.704 136.496 65.304 147.248C75.096 157.808 88.152 163.088 104.472 163.088ZM416.126 206H366.878L284.51 81.296V206H235.262V3.82399H284.51L366.878 129.104V3.82399H416.126V206ZM524.977 208.016C510.193 208.016 496.945 205.616 485.233 200.816C473.521 196.016 464.113 188.912 457.009 179.504C450.097 170.096 446.449 158.768 446.065 145.52H498.481C499.249 153.008 501.841 158.768 506.257 162.8C510.673 166.64 516.433 168.56 523.537 168.56C530.833 168.56 536.593 166.928 540.817 163.664C545.041 160.208 547.153 155.504 547.153 149.552C547.153 144.56 545.425 140.432 541.969 137.168C538.705 133.904 534.577 131.216 529.585 129.104C524.785 126.992 517.873 124.592 508.849 121.904C495.793 117.872 485.137 113.84 476.881 109.808C468.625 105.776 461.521 99.824 455.569 91.952C449.617 84.08 446.641 73.808 446.641 61.136C446.641 42.32 453.457 27.632 467.089 17.072C480.721 6.32 498.481 0.943996 520.369 0.943996C542.641 0.943996 560.593 6.32 574.225 17.072C587.857 27.632 595.153 42.416 596.113 61.424H542.833C542.449 54.896 540.049 49.808 535.633 46.16C531.217 42.32 525.553 40.4 518.641 40.4C512.689 40.4 507.889 42.032 504.241 45.296C500.593 48.368 498.769 52.88 498.769 58.832C498.769 65.36 501.841 70.448 507.985 74.096C514.129 77.744 523.729 81.68 536.785 85.904C549.841 90.32 560.401 94.544 568.465 98.576C576.721 102.608 583.825 108.464 589.777 116.144C595.729 123.824 598.705 133.712 598.705 145.808C598.705 157.328 595.729 167.792 589.777 177.2C584.017 186.608 575.569 194.096 564.433 199.664C553.297 205.232 540.145 208.016 524.977 208.016ZM678.26 3.82399V206H629.012V3.82399H678.26ZM859.39 3.82399V43.28H805.822V206H756.574V43.28H703.006V3.82399H859.39ZM933.354 43.28V84.176H999.306V122.192H933.354V166.544H1007.95V206H884.106V3.82399H1007.95V43.28H933.354Z" fill="#2F88FF"/>
<path d="M1232.57 3.82399V43.28H1150.2V85.904H1211.83V124.208H1150.2V206H1100.95V3.82399H1232.57ZM1306.83 3.82399V124.784C1306.83 136.88 1309.81 146.192 1315.76 152.72C1321.71 159.248 1330.45 162.512 1341.97 162.512C1353.49 162.512 1362.32 159.248 1368.47 152.72C1374.61 146.192 1377.68 136.88 1377.68 124.784V3.82399H1426.93V124.496C1426.93 142.544 1423.09 157.808 1415.41 170.288C1407.73 182.768 1397.36 192.176 1384.31 198.512C1371.44 204.848 1357.04 208.016 1341.11 208.016C1325.17 208.016 1310.87 204.944 1298.19 198.8C1285.71 192.464 1275.83 183.056 1268.53 170.576C1261.23 157.904 1257.59 142.544 1257.59 124.496V3.82399H1306.83ZM1510.76 43.28V84.176H1576.71V122.192H1510.76V166.544H1585.35V206H1461.51V3.82399H1585.35V43.28H1510.76ZM1666.57 167.984H1731.08V206H1617.32V3.82399H1666.57V167.984Z" fill="#FF8A00"/>
</svg>
